<svg width="743" height="741" viewBox="0 0 743 741" fill="none" xmlns="http://www.w3.org/2000/svg">
<g clip-path="url(#clip0_117_575)">
<path fill-rule="evenodd" clip-rule="evenodd" d="M340.147 734.428C341.046 736.446 340.138 738.811 338.12 739.709C336.102 740.608 333.738 739.7 332.839 737.682C331.94 735.664 332.848 733.3 334.866 732.401C336.884 731.502 339.249 732.41 340.147 734.428ZM384.995 730.848C386.343 733.875 384.981 737.422 381.954 738.77C378.927 740.118 375.38 738.756 374.032 735.729C372.685 732.702 374.046 729.155 377.073 727.807C380.1 726.459 383.647 727.821 384.995 730.848ZM428.646 730.44C430.006 732.181 429.697 734.694 427.956 736.055C426.215 737.415 423.702 737.106 422.341 735.365C420.981 733.624 421.29 731.11 423.031 729.75C424.772 728.39 427.285 728.699 428.646 730.44ZM298.003 722.424C298.578 725.688 296.399 728.799 293.136 729.375C289.872 729.95 286.761 727.771 286.185 724.508C285.61 721.245 287.789 718.133 291.052 717.557C294.315 716.982 297.427 719.161 298.003 722.424ZM350.49 721.151C351.065 724.414 348.886 727.526 345.623 728.101C342.36 728.677 339.248 726.498 338.672 723.234C338.097 719.971 340.276 716.859 343.539 716.284C346.803 715.708 349.915 717.887 350.49 721.151ZM471.295 716.116C473.335 718.728 472.872 722.498 470.261 724.539C467.65 726.579 463.879 726.116 461.839 723.504C459.799 720.893 460.262 717.122 462.873 715.082C465.484 713.042 469.255 713.505 471.295 716.116ZM435.615 716.915C436.963 719.942 435.601 723.488 432.574 724.836C429.547 726.184 426 724.823 424.652 721.795C423.305 718.768 424.666 715.221 427.693 713.874C430.72 712.526 434.267 713.887 435.615 716.915ZM253.621 715.048C254.005 717.224 252.552 719.299 250.377 719.682C248.201 720.066 246.126 718.613 245.743 716.438C245.359 714.262 246.812 712.187 248.987 711.804C251.163 711.42 253.238 712.873 253.621 715.048ZM398.382 700.685C399.533 707.212 395.175 713.436 388.648 714.587C382.122 715.738 375.898 711.38 374.747 704.853C373.596 698.326 377.954 692.102 384.481 690.952C391.008 689.801 397.232 694.159 398.382 700.685ZM513.696 707.02C515.437 708.38 515.746 710.894 514.386 712.635C513.026 714.376 510.512 714.684 508.771 713.324C507.03 711.964 506.721 709.451 508.082 707.71C509.442 705.969 511.955 705.66 513.696 707.02ZM264.193 701.177C267.502 701.35 270.044 704.173 269.871 707.483C269.698 710.792 266.874 713.334 263.565 713.16C260.256 712.987 257.714 710.164 257.887 706.854C258.061 703.545 260.884 701.003 264.193 701.177ZM309.784 685.704C316.402 686.051 321.486 691.697 321.14 698.315C320.793 704.934 315.146 710.018 308.528 709.671C301.91 709.324 296.826 703.678 297.173 697.059C297.519 690.441 303.166 685.357 309.784 685.704ZM212.765 690.611C216.074 690.784 218.616 693.607 218.443 696.916C218.269 700.226 215.446 702.768 212.137 702.594C208.884 702.424 206.372 699.693 206.453 696.456C205.776 696.021 205.276 695.314 205.125 694.458C204.838 692.827 205.927 691.271 207.559 690.983C208.279 690.856 208.985 690.997 209.574 691.336C210.517 690.82 211.611 690.55 212.765 690.611ZM477.134 685.471C479.829 691.526 477.107 698.619 471.052 701.314C464.998 704.01 457.904 701.287 455.209 695.233C452.513 689.178 455.236 682.085 461.29 679.389C467.345 676.694 474.438 679.417 477.134 685.471ZM517.04 690.351C519.08 692.962 518.618 696.733 516.006 698.773C513.395 700.813 509.624 700.35 507.584 697.739C505.544 695.127 506.007 691.357 508.618 689.317C511.23 687.276 515 687.74 517.04 690.351ZM352.577 665.522C360.85 665.956 367.205 673.014 366.771 681.287C366.337 689.56 359.279 695.915 351.007 695.481C342.734 695.048 336.379 687.99 336.812 679.717C337.246 671.444 344.304 665.089 352.577 665.522ZM551.613 682.805C554.225 684.845 554.688 688.615 552.648 691.227C550.607 693.838 546.837 694.301 544.226 692.261C541.614 690.221 541.151 686.45 543.191 683.839C545.232 681.227 549.002 680.765 551.613 682.805ZM439.014 673.829C440.452 681.987 435.005 689.767 426.846 691.205C418.688 692.644 410.908 687.196 409.469 679.038C408.031 670.88 413.478 663.1 421.637 661.661C429.795 660.223 437.575 665.67 439.014 673.829ZM235.947 660.426C242.285 662.363 245.852 669.072 243.915 675.41C241.977 681.748 235.268 685.315 228.931 683.377C222.593 681.439 219.026 674.731 220.963 668.393C222.901 662.055 229.61 658.488 235.947 660.426ZM173.073 675.542C175.279 675.658 176.973 677.54 176.858 679.746C176.742 681.952 174.86 683.647 172.654 683.531C170.448 683.415 168.753 681.533 168.869 679.327C168.984 677.121 170.867 675.426 173.073 675.542ZM282.351 651.196C290.273 653.618 294.732 662.004 292.31 669.926C289.888 677.849 281.502 682.307 273.58 679.885C265.658 677.463 261.199 669.077 263.621 661.155C266.043 653.233 274.429 648.774 282.351 651.196ZM187.968 664.41C191.137 665.378 192.92 668.733 191.951 671.902C190.982 675.071 187.628 676.854 184.459 675.885C181.29 674.916 179.507 671.562 180.476 668.393C181.444 665.224 184.799 663.441 187.968 664.41ZM510.061 649.582C513.43 657.15 510.027 666.017 502.459 669.387C494.891 672.756 486.024 669.352 482.654 661.784C479.285 654.216 482.689 645.35 490.257 641.98C497.825 638.611 506.691 642.014 510.061 649.582ZM386.932 630.068C397.963 630.646 406.436 640.057 405.858 651.087C405.28 662.118 395.869 670.591 384.839 670.013C373.808 669.435 365.335 660.024 365.913 648.994C366.491 637.963 375.902 629.49 386.932 630.068ZM590.605 662.216C592.624 663.114 593.531 665.479 592.633 667.497C591.734 669.515 589.37 670.423 587.352 669.524C585.333 668.625 584.426 666.261 585.324 664.243C586.223 662.225 588.587 661.317 590.605 662.216ZM549.719 649.797C553.799 655.019 552.873 662.561 547.651 666.641C542.428 670.721 534.887 669.795 530.807 664.573C526.727 659.35 527.653 651.809 532.875 647.729C538.097 643.649 545.639 644.574 549.719 649.797ZM324.264 625.106C334.827 628.336 340.772 639.517 337.542 650.08C334.313 660.643 323.132 666.588 312.569 663.358C302.006 660.129 296.061 648.948 299.29 638.385C302.519 627.822 313.7 621.877 324.264 625.106ZM470.306 635.61C472.224 646.488 464.96 656.861 454.082 658.779C443.204 660.697 432.831 653.434 430.913 642.556C428.995 631.678 436.259 621.305 447.136 619.387C458.014 617.469 468.387 624.732 470.306 635.61ZM589.767 646.737C592.378 648.778 592.841 652.548 590.801 655.159C588.761 657.771 584.99 658.234 582.379 656.194C579.768 654.153 579.305 650.383 581.345 647.772C583.385 645.16 587.156 644.697 589.767 646.737ZM140.623 641.716C143.792 642.685 145.575 646.039 144.607 649.208C143.638 652.377 140.283 654.16 137.115 653.191C133.946 652.222 132.162 648.868 133.131 645.699C134.1 642.53 137.454 640.747 140.623 641.716ZM217.017 622.851C224.118 627.118 226.416 636.334 222.149 643.435C217.883 650.536 208.667 652.833 201.566 648.566C194.465 644.3 192.168 635.084 196.434 627.983C200.701 620.882 209.916 618.585 217.017 622.851ZM263.996 607.676C273.464 613.365 276.528 625.652 270.839 635.12C265.15 644.588 252.863 647.652 243.395 641.963C233.927 636.274 230.863 623.987 236.552 614.519C242.241 605.051 254.528 601.987 263.996 607.676ZM169.759 620.581C175.44 623.994 177.278 631.366 173.865 637.047C170.451 642.728 163.079 644.566 157.398 641.153C151.717 637.739 149.879 630.367 153.293 624.686C156.706 619.006 164.078 617.167 169.759 620.581ZM621.538 629.546C624.565 630.894 625.927 634.441 624.579 637.468C623.231 640.495 619.685 641.857 616.657 640.509C613.63 639.161 612.269 635.614 613.616 632.587C614.964 629.56 618.511 628.198 621.538 629.546ZM362.288 607.56C370.211 609.982 374.669 618.368 372.247 626.29C369.825 634.213 361.439 638.672 353.517 636.249C345.595 633.827 341.136 625.442 343.558 617.519C345.98 609.597 354.366 605.138 362.288 607.56ZM419.583 603.844C427.856 604.278 434.211 611.336 433.777 619.609C433.344 627.881 426.286 634.237 418.013 633.803C409.74 633.369 403.385 626.311 403.818 618.038C404.252 609.766 411.31 603.411 419.583 603.844ZM531.177 604.929C535.67 615.02 531.132 626.842 521.041 631.335C510.95 635.827 499.128 631.289 494.636 621.199C490.143 611.108 494.681 599.286 504.772 594.793C514.862 590.3 526.685 594.838 531.177 604.929ZM572.986 607.008C578.086 613.537 576.929 622.963 570.401 628.064C563.872 633.164 554.446 632.006 549.345 625.478C544.245 618.95 545.403 609.523 551.931 604.423C558.459 599.323 567.885 600.48 572.986 607.008ZM305.136 599.85C312.237 604.117 314.535 613.332 310.268 620.433C306.002 627.534 296.786 629.832 289.685 625.565C282.584 621.299 280.287 612.083 284.553 604.982C288.82 597.881 298.035 595.584 305.136 599.85ZM105.755 617.492C107.868 618.138 109.057 620.374 108.411 622.487C107.765 624.6 105.529 625.789 103.416 625.143C101.304 624.497 100.115 622.261 100.761 620.148C101.406 618.035 103.643 616.846 105.755 617.492ZM122.241 612.839C125.081 614.546 126 618.232 124.294 621.072C122.587 623.913 118.901 624.832 116.06 623.125C113.22 621.418 112.301 617.732 114.008 614.892C115.714 612.051 119.4 611.132 122.241 612.839ZM611.664 599.483C616.887 603.563 617.812 611.104 613.732 616.327C609.652 621.549 602.111 622.475 596.888 618.395C591.666 614.315 590.74 606.773 594.82 601.551C598.9 596.328 606.442 595.402 611.664 599.483ZM490.428 598.658C491.866 606.816 486.419 614.596 478.26 616.035C470.102 617.473 462.322 612.026 460.884 603.867C459.445 595.709 464.893 587.929 473.051 586.491C481.209 585.052 488.989 590.5 490.428 598.658ZM654.34 601.641C656.516 602.025 657.969 604.099 657.585 606.275C657.201 608.45 655.127 609.903 652.951 609.52C650.776 609.136 649.323 607.061 649.706 604.886C650.09 602.71 652.165 601.257 654.34 601.641ZM210.396 573.639C218.207 581.449 218.207 594.113 210.396 601.923C202.586 609.733 189.923 609.733 182.112 601.923C174.302 594.113 174.302 581.449 182.112 573.639C189.923 565.828 202.586 565.828 210.396 573.639ZM161.142 576.998C167 582.856 167 592.353 161.142 598.211C155.284 604.069 145.786 604.069 139.928 598.211C134.071 592.353 134.071 582.856 139.928 576.998C145.786 571.14 155.284 571.14 161.142 576.998ZM252.208 575.998C258.066 581.856 258.066 591.353 252.208 597.211C246.35 603.069 236.852 603.069 230.994 597.211C225.137 591.353 225.137 581.856 230.994 575.998C236.852 570.14 246.35 570.14 252.208 575.998ZM391.016 577.974C397.354 579.912 400.921 586.621 398.983 592.958C397.045 599.296 390.337 602.863 383.999 600.926C377.661 598.988 374.094 592.279 376.032 585.941C377.969 579.604 384.678 576.037 391.016 577.974ZM340.168 578.093C345.849 581.506 347.687 588.879 344.274 594.559C340.86 600.24 333.488 602.078 327.807 598.665C322.127 595.252 320.288 587.879 323.702 582.199C327.115 576.518 334.487 574.68 340.168 578.093ZM649.833 585.32C652.86 586.668 654.221 590.215 652.874 593.242C651.526 596.269 647.979 597.631 644.952 596.283C641.925 594.935 640.563 591.388 641.911 588.361C643.259 585.334 646.805 583.972 649.833 585.32ZM440.3 568.187C446.918 568.534 452.002 574.18 451.655 580.799C451.308 587.417 445.662 592.501 439.044 592.154C432.425 591.807 427.341 586.161 427.688 579.543C428.035 572.924 433.681 567.84 440.3 568.187ZM582.672 558.573C589.473 567.277 587.93 579.846 579.226 586.647C570.521 593.447 557.952 591.904 551.152 583.2C544.352 574.495 545.895 561.927 554.599 555.126C563.303 548.326 575.872 549.869 582.672 558.573ZM81.7927 579.365C84.6331 581.072 85.5521 584.758 83.8454 587.599C82.1388 590.439 78.4526 591.358 75.6122 589.651C72.7718 587.945 71.8527 584.259 73.5594 581.418C75.2661 578.578 78.9523 577.659 81.7927 579.365ZM541.762 564.207C545.132 571.775 541.728 580.641 534.16 584.011C526.592 587.38 517.726 583.977 514.356 576.409C510.987 568.841 514.39 559.974 521.958 556.604C529.526 553.235 538.393 556.638 541.762 564.207ZM115.837 563.362C120.523 568.048 120.523 575.646 115.837 580.333C111.15 585.019 103.552 585.019 98.866 580.333C94.1797 575.646 94.1797 568.048 98.866 563.362C103.552 558.676 111.15 558.676 115.837 563.362ZM291.462 563.362C296.149 568.048 296.149 575.646 291.462 580.333C286.776 585.019 279.178 585.019 274.492 580.333C269.806 575.646 269.806 568.048 274.492 563.362C279.178 558.676 286.776 558.676 291.462 563.362ZM623.888 552.336C630.416 557.437 631.574 566.863 626.473 573.391C621.373 579.919 611.946 581.077 605.418 575.977C598.89 570.876 597.733 561.45 602.833 554.922C607.933 548.393 617.36 547.236 623.888 552.336ZM676.451 562.459C679.714 563.034 681.893 566.146 681.318 569.41C680.8 572.343 678.233 574.4 675.349 574.368C674.896 574.699 674.344 574.906 673.742 574.937C672.088 575.024 670.676 573.753 670.589 572.098L670.584 571.935C669.641 570.658 669.203 569.012 669.5 567.326C670.075 564.062 673.187 561.883 676.451 562.459ZM499.117 556.821C500.268 563.348 495.91 569.572 489.383 570.723C482.857 571.873 476.633 567.515 475.482 560.989C474.331 554.462 478.689 548.238 485.216 547.087C491.743 545.936 497.966 550.294 499.117 556.821ZM205.585 542.746C209.852 549.847 207.554 559.063 200.453 563.329C193.352 567.596 184.137 565.298 179.87 558.197C175.603 551.096 177.901 541.881 185.002 537.614C192.103 533.348 201.318 535.645 205.585 542.746ZM369.584 546.797C373.844 549.357 375.223 554.886 372.663 559.147C370.103 563.407 364.573 564.786 360.313 562.226C356.052 559.666 354.674 554.137 357.234 549.876C359.794 545.616 365.323 544.237 369.584 546.797ZM165.586 530.342C171.275 539.81 168.212 552.097 158.744 557.786C149.276 563.475 136.989 560.412 131.3 550.944C125.611 541.476 128.674 529.188 138.142 523.499C147.61 517.81 159.898 520.874 165.586 530.342ZM246.731 539.982C250.144 545.663 248.306 553.035 242.625 556.449C236.944 559.862 229.572 558.024 226.159 552.343C222.745 546.662 224.583 539.29 230.264 535.877C235.945 532.463 243.317 534.301 246.731 539.982ZM411.986 540.492C416.74 541.945 419.415 546.976 417.962 551.73C416.508 556.483 411.477 559.158 406.724 557.705C401.97 556.252 399.295 551.22 400.748 546.467C402.201 541.714 407.233 539.038 411.986 540.492ZM659.647 534.172C665.702 536.867 668.425 543.961 665.729 550.015C663.034 556.069 655.94 558.792 649.886 556.097C643.831 553.401 641.108 546.308 643.804 540.253C646.5 534.199 653.593 531.476 659.647 534.172ZM327.575 540.112C331.09 543.627 331.09 549.325 327.575 552.84C324.06 556.354 318.362 556.354 314.847 552.84C311.333 549.325 311.333 543.627 314.847 540.112C318.362 536.597 324.06 536.597 327.575 540.112ZM53.8208 547.426C55.7144 548.564 56.3271 551.022 55.1893 552.915C54.0515 554.809 51.5941 555.422 49.7005 554.284C47.8069 553.146 47.1942 550.688 48.332 548.795C49.4698 546.901 51.9272 546.289 53.8208 547.426ZM71.6025 544.354C73.9457 546.698 73.9457 550.497 71.6025 552.84C69.2594 555.183 65.4604 555.183 63.1173 552.84C60.7741 550.497 60.7741 546.698 63.1173 544.354C65.4604 542.011 69.2594 542.011 71.6025 544.354ZM451.579 526.745C456.543 527.005 460.356 531.24 460.096 536.203C459.836 541.167 455.601 544.98 450.637 544.72C445.673 544.46 441.86 540.225 442.12 535.261C442.381 530.298 446.615 526.485 451.579 526.745ZM116.982 521.686C121.249 528.787 118.951 538.002 111.85 542.269C104.749 546.535 95.5337 544.238 91.267 537.137C87.0003 530.036 89.2979 520.821 96.399 516.554C103.5 512.287 112.715 514.585 116.982 521.686ZM583.091 516.499C588.192 523.027 587.034 532.454 580.506 537.554C573.978 542.655 564.551 541.497 559.451 534.969C554.351 528.441 555.508 519.014 562.036 513.914C568.564 508.814 577.991 509.971 583.091 516.499ZM287.395 526.159C289.955 530.42 288.577 535.949 284.316 538.509C280.056 541.069 274.526 539.69 271.966 535.43C269.406 531.169 270.785 525.64 275.046 523.08C279.306 520.52 284.835 521.898 287.395 526.159ZM621.57 502.996C630.274 509.797 631.817 522.366 625.017 531.07C618.216 539.774 605.647 541.317 596.943 534.517C588.239 527.716 586.696 515.147 593.496 506.443C600.297 497.739 612.865 496.196 621.57 502.996ZM540.072 521.51C542.768 527.565 540.045 534.658 533.991 537.354C527.936 540.049 520.843 537.326 518.147 531.272C515.452 525.217 518.175 518.124 524.229 515.428C530.284 512.733 537.377 515.456 540.072 521.51ZM704.293 533.097C704.408 535.303 702.714 537.186 700.508 537.301C698.301 537.417 696.419 535.722 696.304 533.516C696.188 531.31 697.883 529.428 700.089 529.312C702.295 529.196 704.177 530.891 704.293 533.097ZM693.206 512.701C696.469 513.277 698.648 516.389 698.073 519.652C697.497 522.915 694.385 525.094 691.122 524.519C687.858 523.944 685.679 520.832 686.255 517.568C686.83 514.305 689.942 512.126 693.206 512.701ZM497.31 511.47C498.173 516.365 494.904 521.033 490.009 521.896C485.114 522.759 480.446 519.491 479.583 514.596C478.72 509.701 481.989 505.033 486.884 504.17C491.779 503.307 496.447 506.575 497.31 511.47ZM210.02 503.779C211.958 510.116 208.391 516.825 202.053 518.763C195.715 520.7 189.007 517.133 187.069 510.796C185.131 504.458 188.698 497.749 195.036 495.811C201.374 493.874 208.083 497.441 210.02 503.779ZM169.428 496.507C171.85 504.429 167.391 512.815 159.469 515.237C151.547 517.659 143.161 513.2 140.739 505.278C138.317 497.355 142.776 488.97 150.698 486.548C158.62 484.126 167.006 488.584 169.428 496.507ZM76.3216 497.494C79.7349 503.175 77.8968 510.548 72.216 513.961C66.5352 517.374 59.1629 515.536 55.7495 509.855C52.3362 504.175 54.1743 496.802 59.8551 493.389C65.5359 489.976 72.9082 491.814 76.3216 497.494ZM660.103 485.469C667.671 488.838 671.074 497.705 667.705 505.273C664.335 512.841 655.469 516.245 647.901 512.875C640.333 509.505 636.929 500.639 640.299 493.071C643.668 485.503 652.535 482.099 660.103 485.469ZM40.4539 502.09C42.797 504.433 42.797 508.232 40.4539 510.575C38.1107 512.918 34.3117 512.918 31.9686 510.575C29.6255 508.232 29.6255 504.433 31.9686 502.09C34.3117 499.747 38.1107 499.747 40.4539 502.09ZM252.821 500.204C254.274 504.957 251.599 509.989 246.846 511.442C242.092 512.895 237.061 510.22 235.608 505.467C234.154 500.713 236.83 495.682 241.583 494.228C246.336 492.775 251.368 495.45 252.821 500.204ZM133.619 474.794C136.848 485.357 130.903 496.538 120.34 499.768C109.777 502.997 98.5958 497.052 95.3663 486.489C92.1369 475.926 98.082 464.745 108.645 461.516C119.208 458.286 130.389 464.231 133.619 474.794ZM719.124 491.838C719.298 495.147 716.756 497.971 713.447 498.144C710.137 498.317 707.314 495.775 707.141 492.466C706.967 489.157 709.509 486.334 712.819 486.16C716.128 485.987 718.951 488.529 719.124 491.838ZM571.122 475.48C575.203 480.703 574.277 488.244 569.054 492.324C563.832 496.404 556.29 495.479 552.21 490.256C548.13 485.034 549.056 477.492 554.278 473.412C559.501 469.332 567.042 470.258 571.122 475.48ZM527.347 477.944C529.369 482.484 527.327 487.804 522.786 489.826C518.245 491.848 512.925 489.806 510.903 485.265C508.882 480.724 510.924 475.404 515.465 473.382C520.006 471.361 525.326 473.403 527.347 477.944ZM611.797 462.071C618.326 467.171 619.483 476.598 614.383 483.126C609.282 489.654 599.856 490.812 593.328 485.711C586.8 480.611 585.642 471.184 590.742 464.656C595.843 458.128 605.269 456.971 611.797 462.071ZM690.355 460.698C696.882 461.849 701.24 468.073 700.089 474.599C698.938 481.126 692.714 485.484 686.187 484.333C679.661 483.182 675.303 476.958 676.453 470.432C677.604 463.905 683.828 459.547 690.355 460.698ZM224.113 469.311C224.373 474.275 220.56 478.51 215.596 478.77C210.632 479.03 206.398 475.217 206.137 470.253C205.877 465.289 209.69 461.055 214.654 460.794C219.618 460.534 223.853 464.347 224.113 469.311ZM37.9998 468.35C39.7065 471.191 38.7875 474.877 35.9471 476.584C33.1066 478.29 29.4205 477.371 27.7138 474.531C26.0071 471.69 26.9262 468.004 29.7666 466.298C32.607 464.591 36.2931 465.51 37.9998 468.35ZM645.917 438.155C656.007 442.648 660.545 454.47 656.053 464.561C651.56 474.652 639.738 479.19 629.647 474.697C619.556 470.204 615.018 458.382 619.511 448.291C624.004 438.201 635.826 433.662 645.917 438.155ZM181.718 462.425C182.065 469.044 176.981 474.69 170.363 475.037C163.745 475.384 158.098 470.3 157.751 463.681C157.404 457.063 162.488 451.417 169.107 451.07C175.725 450.723 181.372 455.807 181.718 462.425ZM88.552 454.637C90.9741 462.559 86.5153 470.945 78.593 473.367C70.6707 475.789 62.2849 471.33 59.8628 463.408C57.4407 455.486 61.8995 447.1 69.8218 444.678C77.7441 442.256 86.1299 446.714 88.552 454.637ZM21.0397 464.333C22.6018 465.895 22.6018 468.427 21.0397 469.989C19.4776 471.552 16.9449 471.552 15.3828 469.989C13.8207 468.427 13.8207 465.895 15.3828 464.333C16.9449 462.771 19.4776 462.771 21.0397 464.333ZM144.091 445.549C144.525 453.822 138.17 460.88 129.897 461.314C121.624 461.747 114.566 455.392 114.132 447.119C113.699 438.846 120.054 431.788 128.327 431.355C136.6 430.921 143.658 437.276 144.091 445.549ZM733.414 448.855C734.06 450.967 732.871 453.203 730.758 453.849C728.646 454.495 726.41 453.306 725.764 451.194C725.118 449.081 726.307 446.845 728.419 446.199C730.532 445.553 732.768 446.742 733.414 448.855ZM548.236 436.286C551.296 440.203 550.601 445.859 546.684 448.919C542.768 451.979 537.112 451.285 534.051 447.368C530.991 443.451 531.686 437.795 535.603 434.735C539.519 431.675 545.175 432.369 548.236 436.286ZM590.261 425.166C595.483 429.246 596.409 436.787 592.329 442.01C588.249 447.232 580.707 448.158 575.485 444.078C570.262 439.998 569.336 432.456 573.417 427.234C577.497 422.011 585.038 421.085 590.261 425.166ZM724.257 439.587C724.43 442.896 721.888 445.719 718.579 445.893C715.27 446.066 712.447 443.524 712.273 440.215C712.1 436.906 714.642 434.083 717.951 433.909C721.26 433.736 724.083 436.278 724.257 439.587ZM679.014 413.331C687.173 414.77 692.62 422.55 691.182 430.708C689.743 438.866 681.963 444.314 673.805 442.875C665.646 441.437 660.199 433.657 661.637 425.499C663.076 417.34 670.856 411.893 679.014 413.331ZM198.054 419.183C202.933 420.132 206.119 424.856 205.171 429.735C204.223 434.614 199.498 437.801 194.619 436.852C189.74 435.904 186.553 431.18 187.502 426.3C188.45 421.421 193.174 418.235 198.054 419.183ZM114.598 415.819C115.176 426.849 106.703 436.26 95.6722 436.838C84.6417 437.416 75.231 428.943 74.6529 417.912C74.0749 406.881 82.5483 397.471 93.5788 396.893C104.609 396.315 114.02 404.788 114.598 415.819ZM54.9517 421.327C56.8894 427.665 53.3223 434.374 46.9845 436.311C40.6467 438.249 33.938 434.682 32.0004 428.344C30.0627 422.006 33.6297 415.298 39.9676 413.36C46.3054 411.422 53.014 414.989 54.9517 421.327ZM626.534 400.81C634.102 404.179 637.506 413.046 634.136 420.614C630.767 428.182 621.9 431.585 614.332 428.216C606.764 424.846 603.36 415.98 606.73 408.412C610.099 400.844 618.966 397.44 626.534 400.81ZM18.0011 419.806C19.7078 422.646 18.7887 426.332 15.9483 428.039C13.1079 429.746 9.4218 428.827 7.71511 425.986C6.00843 423.146 6.92749 419.46 9.76789 417.753C12.6083 416.046 16.2944 416.965 18.0011 419.806ZM156.212 398.728C162.718 399.993 166.966 406.292 165.702 412.798C164.437 419.303 158.138 423.552 151.633 422.287C145.127 421.023 140.878 414.724 142.143 408.218C143.407 401.713 149.706 397.464 156.212 398.728ZM737.824 405.233C738.792 408.402 737.009 411.756 733.84 412.725C730.671 413.694 727.317 411.91 726.348 408.741C725.379 405.572 727.163 402.218 730.331 401.249C733.5 400.281 736.855 402.064 737.824 405.233ZM653.803 370.855C664.681 372.773 671.945 383.146 670.026 394.024C668.108 404.902 657.735 412.165 646.857 410.247C635.979 408.329 628.716 397.956 630.634 387.078C632.552 376.2 642.925 368.937 653.803 370.855ZM558.572 392.673C562.489 395.733 563.183 401.389 560.123 405.306C557.063 409.223 551.407 409.917 547.49 406.857C543.573 403.797 542.878 398.141 545.939 394.224C548.999 390.307 554.655 389.613 558.572 392.673ZM716.087 395.235C716.433 401.854 711.349 407.5 704.731 407.847C698.113 408.194 692.466 403.11 692.12 396.491C691.773 389.873 696.857 384.227 703.475 383.88C710.093 383.533 715.74 388.617 716.087 395.235ZM75.7468 385.357C76.1804 393.63 69.8253 400.688 61.5524 401.122C53.2795 401.555 46.2215 395.2 45.7879 386.927C45.3544 378.654 51.7094 371.596 59.9823 371.163C68.2552 370.729 75.3132 377.084 75.7468 385.357ZM121.413 369.733C129.545 371.314 134.856 379.188 133.275 387.32C131.694 395.452 123.821 400.763 115.688 399.182C107.556 397.601 102.245 389.728 103.826 381.596C105.407 373.464 113.281 368.153 121.413 369.733ZM192.374 378.495C196.915 380.517 198.957 385.837 196.935 390.378C194.913 394.919 189.593 396.961 185.053 394.939C180.512 392.917 178.47 387.597 180.491 383.056C182.513 378.516 187.833 376.473 192.374 378.495ZM596.709 370.211C602.763 372.906 605.486 380 602.79 386.054C600.095 392.109 593.002 394.831 586.947 392.136C580.893 389.44 578.17 382.347 580.865 376.292C583.561 370.238 590.654 367.515 596.709 370.211ZM24.8189 383.778C25.7877 386.947 24.0042 390.301 20.8353 391.27C17.6664 392.239 14.3121 390.455 13.3432 387.286C12.3744 384.118 14.1579 380.763 17.3268 379.794C20.4957 378.826 23.8501 380.609 24.8189 383.778ZM8.29792 378.473C9.43571 380.367 8.82301 382.824 6.92941 383.962C5.03581 385.1 2.57838 384.487 1.44059 382.593C0.302795 380.7 0.915501 378.242 2.8091 377.105C4.7027 375.967 7.16013 376.58 8.29792 378.473ZM156.206 349.152C162.26 351.848 164.983 358.941 162.288 364.996C159.592 371.05 152.499 373.773 146.444 371.077C140.39 368.382 137.667 361.289 140.363 355.234C143.058 349.18 150.151 346.457 156.206 349.152ZM697.534 354.473C697.968 362.746 691.613 369.804 683.34 370.237C675.067 370.671 668.009 364.316 667.576 356.043C667.142 347.77 673.497 340.712 681.77 340.278C690.043 339.845 697.101 346.2 697.534 354.473ZM625.962 339.308C634.12 340.746 639.568 348.526 638.129 356.685C636.691 364.843 628.911 370.291 620.752 368.852C612.594 367.414 607.146 359.634 608.585 351.475C610.024 343.317 617.803 337.869 625.962 339.308ZM96.0341 327.889C106.877 329.996 113.958 340.495 111.85 351.337C109.743 362.18 99.2445 369.261 88.4017 367.154C77.559 365.046 70.4778 354.548 72.5854 343.705C74.693 332.862 85.1913 325.781 96.0341 327.889ZM742.084 358.827C743.221 360.72 742.609 363.178 740.715 364.315C738.822 365.453 736.364 364.84 735.226 362.947C734.089 361.053 734.701 358.596 736.595 357.458C738.488 356.32 740.946 356.933 742.084 358.827ZM558.1 346.349C562.641 348.371 564.683 353.691 562.662 358.232C560.64 362.773 555.32 364.815 550.779 362.793C546.238 360.771 544.196 355.451 546.218 350.91C548.239 346.37 553.56 344.328 558.1 346.349ZM730.163 353.292C731.132 356.461 729.348 359.815 726.179 360.784C723.01 361.753 719.656 359.97 718.687 356.801C717.718 353.632 719.502 350.277 722.671 349.309C725.84 348.34 729.194 350.123 730.163 353.292ZM51.2029 344.909C51.5497 351.527 46.4657 357.173 39.8473 357.52C33.229 357.867 27.5826 352.783 27.2357 346.165C26.8889 339.546 31.9729 333.9 38.5913 333.553C45.2096 333.206 50.856 338.29 51.2029 344.909ZM196.345 333.938C200.262 336.999 200.957 342.655 197.896 346.571C194.836 350.488 189.18 351.183 185.263 348.123C181.347 345.062 180.652 339.406 183.712 335.49C186.772 331.573 192.428 330.878 196.345 333.938ZM668.669 323.488C669.248 334.518 660.774 343.929 649.744 344.507C638.713 345.085 629.302 336.612 628.724 325.581C628.146 314.551 636.62 305.14 647.65 304.562C658.681 303.984 668.091 312.457 668.669 323.488ZM128.821 313.072C136.389 316.442 139.793 325.309 136.423 332.877C133.054 340.445 124.187 343.848 116.619 340.479C109.051 337.109 105.647 328.243 109.017 320.674C112.386 313.106 121.253 309.703 128.821 313.072ZM589.62 316.833C596.147 317.984 600.505 324.208 599.354 330.735C598.203 337.262 591.979 341.62 585.452 340.469C578.926 339.318 574.568 333.094 575.718 326.567C576.869 320.041 583.093 315.683 589.62 316.833ZM17.1582 331.837C18.1271 335.006 16.3436 338.36 13.1746 339.329C10.0057 340.298 6.65141 338.515 5.68258 335.346C4.71374 332.177 6.49726 328.822 9.66617 327.854C12.8351 326.885 16.1894 328.668 17.1582 331.837ZM711.506 312.234C713.443 318.572 709.876 325.281 703.539 327.219C697.201 329.156 690.492 325.589 688.554 319.251C686.617 312.914 690.184 306.205 696.522 304.267C702.859 302.33 709.568 305.897 711.506 312.234ZM735.809 315.434C737.516 318.274 736.597 321.96 733.756 323.667C730.916 325.374 727.23 324.455 725.523 321.614C723.816 318.774 724.736 315.088 727.576 313.381C730.416 311.674 734.102 312.593 735.809 315.434ZM69.6602 294.795C77.7923 296.376 83.1032 304.25 81.5225 312.382C79.9418 320.514 72.068 325.825 63.9359 324.244C55.8039 322.663 50.493 314.79 52.0737 306.658C53.6544 298.526 61.5281 293.215 69.6602 294.795ZM546.386 303.021C551.281 303.884 554.549 308.552 553.686 313.447C552.823 318.342 548.155 321.611 543.26 320.747C538.365 319.884 535.096 315.216 535.96 310.321C536.823 305.426 541.491 302.158 546.386 303.021ZM168.35 296.717C173.573 300.798 174.499 308.339 170.419 313.561C166.338 318.784 158.797 319.71 153.574 315.63C148.352 311.549 147.426 304.008 151.506 298.786C155.586 293.563 163.128 292.637 168.35 296.717ZM629.19 294.281C629.624 302.554 623.269 309.612 614.996 310.045C606.723 310.479 599.665 304.124 599.231 295.851C598.798 287.578 605.153 280.52 613.426 280.086C621.699 279.653 628.756 286.008 629.19 294.281ZM209.003 293.743C212.064 297.66 211.369 303.316 207.452 306.376C203.535 309.436 197.879 308.741 194.819 304.825C191.759 300.908 192.454 295.252 196.37 292.192C200.287 289.131 205.943 289.826 209.003 293.743ZM31.0491 301.185C31.2225 304.494 28.6805 307.317 25.3714 307.491C22.0622 307.664 19.239 305.122 19.0656 301.813C18.8921 298.504 21.4342 295.681 24.7433 295.507C28.0525 295.334 30.8757 297.876 31.0491 301.185ZM113.506 266.591C123.597 271.084 128.135 282.906 123.642 292.997C119.149 303.088 107.327 307.626 97.2364 303.133C87.1456 298.64 82.6075 286.818 87.1002 276.728C91.5929 266.637 103.415 262.099 113.506 266.591ZM683.643 277.171C686.065 285.093 681.607 293.479 673.684 295.901C665.762 298.323 657.376 293.864 654.954 285.942C652.532 278.02 656.991 269.634 664.913 267.212C672.835 264.79 681.221 269.249 683.643 277.171ZM17.7425 289.385C18.3884 291.498 17.1994 293.734 15.0868 294.38C12.9742 295.026 10.738 293.837 10.0921 291.724C9.44618 289.611 10.6352 287.375 12.7478 286.729C14.8604 286.083 17.0966 287.272 17.7425 289.385ZM585.571 277.719C585.918 284.337 580.834 289.983 574.216 290.33C567.597 290.677 561.951 285.593 561.604 278.975C561.257 272.356 566.341 266.71 572.96 266.363C579.578 266.016 585.224 271.1 585.571 277.719ZM150.507 255.084C157.036 260.184 158.193 269.611 153.093 276.139C147.992 282.667 138.566 283.825 132.038 278.724C125.51 273.624 124.352 264.197 129.452 257.669C134.553 251.141 143.979 249.984 150.507 255.084ZM537.185 271.147C537.445 276.11 533.632 280.345 528.668 280.605C523.705 280.866 519.47 277.053 519.21 272.089C518.949 267.125 522.763 262.89 527.726 262.63C532.69 262.37 536.925 266.183 537.185 271.147ZM648.14 254.089C651.369 264.653 645.424 275.834 634.861 279.063C624.298 282.292 613.117 276.347 609.888 265.784C606.658 255.221 612.603 244.04 623.166 240.811C633.729 237.581 644.91 243.526 648.14 254.089ZM727.922 270.618C729.485 272.18 729.485 274.713 727.922 276.275C726.36 277.837 723.828 277.837 722.266 276.275C720.704 274.713 720.704 272.18 722.266 270.618C723.828 269.056 726.36 269.056 727.922 270.618ZM58.0032 253.128C64.5088 254.392 68.7576 260.691 67.493 267.197C66.2284 273.703 59.9294 277.951 53.4238 276.687C46.9181 275.422 42.6694 269.123 43.9339 262.618C45.1985 256.112 51.4975 251.863 58.0032 253.128ZM715.81 266.889C717.517 269.73 716.598 273.416 713.758 275.122C710.917 276.829 707.231 275.91 705.524 273.07C703.818 270.229 704.737 266.543 707.577 264.836C710.418 263.13 714.104 264.049 715.81 266.889ZM190.845 250.855C194.925 256.077 193.999 263.618 188.776 267.699C183.554 271.779 176.013 270.853 171.932 265.631C167.852 260.408 168.778 252.867 174.001 248.786C179.223 244.706 186.764 245.632 190.845 250.855ZM232.984 255.726C235.006 260.267 232.964 265.587 228.423 267.609C223.882 269.631 218.562 267.589 216.541 263.048C214.519 258.507 216.561 253.187 221.102 251.165C225.643 249.143 230.963 251.186 232.984 255.726ZM95.2523 228.413C102.82 231.783 106.224 240.649 102.854 248.217C99.4849 255.786 90.6183 259.189 83.0502 255.82C75.4822 252.45 72.0786 243.583 75.4481 236.015C78.8176 228.447 87.6843 225.044 95.2523 228.413ZM36.1816 248.934C36.3551 252.243 33.813 255.066 30.5039 255.239C27.1947 255.413 24.3715 252.871 24.1981 249.562C24.0246 246.253 26.5667 243.429 29.8758 243.256C33.185 243.082 36.0082 245.625 36.1816 248.934ZM602.767 235.301C605.189 243.223 600.731 251.609 592.808 254.031C584.886 256.453 576.5 251.994 574.078 244.072C571.656 236.15 576.115 227.764 584.037 225.342C591.959 222.92 600.345 227.379 602.767 235.301ZM687.775 231.565C691.188 237.245 689.35 244.618 683.669 248.031C677.988 251.444 670.616 249.606 667.203 243.926C663.789 238.245 665.627 230.872 671.308 227.459C676.989 224.046 684.361 225.884 687.775 231.565ZM507.898 235.112C509.352 239.865 506.676 244.897 501.923 246.35C497.17 247.803 492.138 245.128 490.685 240.375C489.232 235.621 491.907 230.59 496.66 229.137C501.414 227.683 506.445 230.359 507.898 235.112ZM556.437 229.783C558.375 236.121 554.808 242.829 548.47 244.767C542.132 246.705 535.424 243.138 533.486 236.8C531.548 230.462 535.115 223.753 541.453 221.816C547.791 219.878 554.5 223.445 556.437 229.783ZM146.892 206.279C155.596 213.079 157.139 225.648 150.339 234.352C143.539 243.056 130.97 244.599 122.266 237.799C113.561 230.999 112.018 218.43 118.819 209.726C125.619 201.022 138.188 199.478 146.892 206.279ZM711.337 230.032C713.68 232.375 713.68 236.174 711.337 238.517C708.994 240.861 705.195 240.861 702.851 238.517C700.508 236.174 700.508 232.375 702.851 230.032C705.195 227.689 708.994 227.689 711.337 230.032ZM263.467 226.312C264.33 231.207 261.062 235.875 256.167 236.738C251.272 237.601 246.604 234.333 245.741 229.438C244.877 224.543 248.146 219.875 253.041 219.012C257.936 218.149 262.604 221.417 263.467 226.312ZM183.604 206.141C188.704 212.67 187.547 222.096 181.019 227.197C174.49 232.297 165.064 231.139 159.963 224.611C154.863 218.083 156.021 208.657 162.549 203.556C169.077 198.456 178.503 199.613 183.604 206.141ZM652.257 204.283C656.524 211.384 654.226 220.599 647.125 224.866C640.024 229.133 630.809 226.835 626.542 219.734C622.276 212.633 624.573 203.418 631.674 199.151C638.775 194.884 647.991 197.182 652.257 204.283ZM225.74 209.719C228.436 215.774 225.713 222.867 219.659 225.563C213.604 228.258 206.511 225.535 203.815 219.481C201.12 213.427 203.843 206.333 209.897 203.638C215.952 200.942 223.045 203.665 225.74 209.719ZM53.7707 212.862C57.0235 213.494 59.1479 216.644 58.5156 219.897C57.8833 223.149 54.7338 225.274 51.481 224.641C48.2282 224.009 46.1038 220.86 46.7361 217.607C47.3684 214.354 50.5179 212.23 53.7707 212.862ZM612.224 190.476C617.913 199.944 614.85 212.232 605.382 217.921C595.914 223.61 583.627 220.546 577.938 211.078C572.249 201.61 575.312 189.323 584.78 183.634C594.248 177.945 606.536 181.008 612.224 190.476ZM471.558 205.99C474.118 210.251 472.739 215.78 468.479 218.34C464.218 220.9 458.689 219.521 456.129 215.261C453.569 211 454.947 205.471 459.208 202.911C463.469 200.351 468.998 201.73 471.558 205.99ZM47.0187 207.884C47.1343 210.09 45.4396 211.972 43.2335 212.088C41.0274 212.203 39.1452 210.509 39.0296 208.303C38.914 206.096 40.6087 204.214 42.8148 204.099C45.0209 203.983 46.903 205.678 47.0187 207.884ZM293.793 193.869C298.751 194.216 302.49 198.516 302.143 203.475C301.796 208.433 297.496 212.172 292.537 211.825C287.579 211.478 283.84 207.178 284.187 202.219C284.534 197.261 288.834 193.522 293.793 193.869ZM93.2672 185.191C99.3216 187.887 102.045 194.98 99.3489 201.035C96.6533 207.089 89.56 209.812 83.5055 207.117C77.4511 204.421 74.7282 197.328 77.4238 191.273C80.1194 185.219 87.2127 182.496 93.2672 185.191ZM517.366 189.077C520.779 194.758 518.941 202.13 513.26 205.543C507.579 208.957 500.207 207.119 496.794 201.438C493.38 195.757 495.218 188.385 500.899 184.971C506.58 181.558 513.952 183.396 517.366 189.077ZM563.654 183.223C567.921 190.324 565.623 199.539 558.522 203.806C551.421 208.072 542.206 205.775 537.939 198.674C533.673 191.573 535.97 182.357 543.071 178.091C550.172 173.824 559.388 176.122 563.654 183.223ZM428.458 187.768C431.973 191.282 431.973 196.981 428.458 200.496C424.943 204.01 419.245 204.01 415.73 200.496C412.215 196.981 412.215 191.282 415.73 187.768C419.245 184.253 424.943 184.253 428.458 187.768ZM336.417 183.021C341.171 184.474 343.846 189.506 342.393 194.259C340.939 199.012 335.908 201.688 331.155 200.235C326.401 198.781 323.726 193.75 325.179 188.996C326.632 184.243 331.664 181.568 336.417 183.021ZM680.188 187.768C682.531 190.111 682.531 193.91 680.188 196.253C677.845 198.596 674.046 198.596 671.703 196.253C669.36 193.91 669.36 190.111 671.703 187.768C674.046 185.424 677.845 185.424 680.188 187.768ZM383.399 179.118C387.66 181.678 389.039 187.207 386.479 191.468C383.919 195.728 378.389 197.107 374.129 194.547C369.868 191.987 368.49 186.458 371.05 182.197C373.61 177.936 379.139 176.558 383.399 179.118ZM694.012 187.06C695.905 188.198 696.518 190.655 695.38 192.549C694.243 194.443 691.785 195.055 689.892 193.918C687.998 192.78 687.385 190.322 688.523 188.429C689.661 186.535 692.118 185.922 694.012 187.06ZM267.569 179.919C268.719 186.446 264.361 192.67 257.835 193.821C251.308 194.971 245.084 190.613 243.933 184.087C242.782 177.56 247.14 171.336 253.667 170.185C260.194 169.034 266.418 173.392 267.569 179.919ZM138.417 164.819C144.945 169.919 146.102 179.346 141.002 185.874C135.902 192.402 126.475 193.559 119.947 188.459C113.419 183.359 112.261 173.932 117.362 167.404C122.462 160.876 131.889 159.718 138.417 164.819ZM191.903 157.911C198.703 166.615 197.16 179.184 188.456 185.985C179.752 192.785 167.183 191.242 160.382 182.538C153.582 173.833 155.125 161.265 163.829 154.464C172.533 147.664 185.102 149.207 191.903 157.911ZM229.532 164.583C232.901 172.151 229.498 181.017 221.93 184.387C214.362 187.756 205.495 184.353 202.125 176.785C198.756 169.217 202.16 160.35 209.728 156.98C217.296 153.611 226.162 157.015 229.532 164.583ZM468.813 160.275C473.5 164.961 473.5 172.559 468.813 177.245C464.127 181.932 456.529 181.932 451.843 177.245C447.156 172.559 447.156 164.961 451.843 160.275C456.529 155.588 464.127 155.588 468.813 160.275ZM644.439 160.275C649.126 164.961 649.126 172.559 644.439 177.245C639.753 181.932 632.155 181.932 627.469 177.245C622.782 172.559 622.782 164.961 627.469 160.275C632.155 155.588 639.753 155.588 644.439 160.275ZM71.3915 163.404C74.6443 164.037 76.7687 167.186 76.1364 170.439C75.5041 173.692 72.3546 175.816 69.1018 175.184C65.8489 174.552 63.7246 171.402 64.3569 168.149C64.9891 164.897 68.1386 162.772 71.3915 163.404ZM561.193 138.684C569.004 146.495 569.004 159.158 561.193 166.969C553.383 174.779 540.719 174.779 532.909 166.969C525.098 159.158 525.098 146.495 532.909 138.684C540.719 130.874 553.383 130.874 561.193 138.684ZM306.213 146.644C312.824 147.107 317.809 152.841 317.346 159.452C316.884 166.063 311.15 171.048 304.538 170.586C297.927 170.124 292.942 164.389 293.405 157.778C293.867 151.167 299.601 146.182 306.213 146.644ZM512.311 143.396C518.169 149.254 518.169 158.751 512.311 164.609C506.453 170.467 496.955 170.467 491.098 164.609C485.24 158.751 485.24 149.254 491.098 143.396C496.955 137.538 506.453 137.538 512.311 143.396ZM603.377 142.396C609.235 148.254 609.235 157.751 603.377 163.609C597.519 169.467 588.021 169.467 582.164 163.609C576.306 157.751 576.306 148.254 582.164 142.396C588.021 136.538 597.519 136.538 603.377 142.396ZM415.905 142.679C421.586 146.092 423.424 153.465 420.01 159.145C416.597 164.826 409.225 166.664 403.544 163.251C397.863 159.838 396.025 152.465 399.438 146.784C402.852 141.104 410.224 139.266 415.905 142.679ZM359.142 139.801C365.48 141.738 369.047 148.447 367.109 154.785C365.171 161.123 358.463 164.69 352.125 162.752C345.787 160.814 342.22 154.106 344.158 147.768C346.095 141.43 352.804 137.863 359.142 139.801ZM668.1 151.692C670.941 153.399 671.86 157.085 670.153 159.926C668.446 162.766 664.76 163.685 661.92 161.978C659.079 160.272 658.16 156.586 659.867 153.745C661.574 150.905 665.26 149.986 668.1 151.692ZM98.2011 145.005C101.228 146.353 102.59 149.9 101.242 152.927C99.8941 155.954 96.3475 157.316 93.3202 155.968C90.293 154.62 88.9316 151.073 90.2794 148.046C91.6272 145.019 95.1739 143.658 98.2011 145.005ZM282.167 137.04C283.605 145.199 278.158 152.979 269.999 154.417C261.841 155.856 254.061 150.408 252.623 142.25C251.184 134.091 256.632 126.312 264.79 124.873C272.948 123.434 280.728 128.882 282.167 137.04ZM249.252 119.793C253.745 129.883 249.207 141.706 239.116 146.198C229.025 150.691 217.203 146.153 212.71 136.062C208.218 125.971 212.756 114.149 222.847 109.656C232.937 105.164 244.76 109.702 249.252 119.793ZM146.947 122.401C152.169 126.481 153.095 134.022 149.015 139.245C144.935 144.467 137.393 145.393 132.171 141.313C126.949 137.233 126.023 129.691 130.103 124.469C134.183 119.246 141.724 118.32 146.947 122.401ZM454.027 115.779C461.128 120.045 463.426 129.261 459.159 136.362C454.892 143.463 445.677 145.76 438.576 141.494C431.475 137.227 429.177 128.012 433.444 120.911C437.711 113.81 446.926 111.512 454.027 115.779ZM193.709 115.632C198.81 122.16 197.652 131.587 191.124 136.687C184.596 141.788 175.169 140.63 170.069 134.102C164.969 127.574 166.126 118.147 172.654 113.047C179.182 107.947 188.609 109.104 193.709 115.632ZM500.317 99.3811C509.785 105.07 512.849 117.357 507.16 126.825C501.471 136.293 489.184 139.357 479.716 133.668C470.248 127.979 467.184 115.692 472.873 106.224C478.562 96.7557 490.849 93.6922 500.317 99.3811ZM93.4191 128.541C95.5876 128.962 97.0039 131.062 96.5824 133.23C96.1608 135.399 94.0612 136.815 91.8926 136.394C89.7241 135.972 88.3078 133.872 88.7293 131.704C89.1509 129.535 91.2505 128.119 93.4191 128.541ZM327.967 105.369C336.231 105.947 342.462 113.115 341.884 121.379C341.306 129.643 334.139 135.874 325.874 135.296C317.61 134.718 311.379 127.55 311.957 119.286C312.535 111.022 319.703 104.791 327.967 105.369ZM389.624 104.477C397.546 106.899 402.005 115.285 399.583 123.207C397.161 131.129 388.775 135.588 380.853 133.166C372.93 130.744 368.471 122.358 370.894 114.436C373.316 106.513 381.701 102.055 389.624 104.477ZM627.652 118.219C630.492 119.926 631.411 123.612 629.705 126.452C627.998 129.293 624.312 130.212 621.472 128.505C618.631 126.798 617.712 123.112 619.419 120.272C621.125 117.431 624.812 116.512 627.652 118.219ZM639.725 115.583C641.837 116.229 643.026 118.466 642.38 120.578C641.734 122.691 639.498 123.88 637.386 123.234C635.273 122.588 634.084 120.352 634.73 118.239C635.376 116.127 637.612 114.938 639.725 115.583ZM586.314 100.191C591.995 103.604 593.833 110.977 590.42 116.658C587.006 122.338 579.634 124.177 573.953 120.763C568.272 117.35 566.434 109.977 569.848 104.297C573.261 98.6159 580.633 96.7778 586.314 100.191ZM312.137 98.3516C314.055 109.23 306.792 119.603 295.914 121.521C285.036 123.439 274.663 116.175 272.745 105.298C270.827 94.4197 278.09 84.0465 288.968 82.1284C299.846 80.2104 310.219 87.4737 312.137 98.3516ZM542.146 92.7774C549.247 97.0441 551.545 106.259 547.278 113.36C543.011 120.462 533.796 122.759 526.695 118.492C519.594 114.226 517.296 105.01 521.563 97.9094C525.83 90.8083 535.045 88.5107 542.146 92.7774ZM430.572 77.3678C441.135 80.5972 447.08 91.7782 443.851 102.341C440.621 112.904 429.44 118.849 418.877 115.62C408.314 112.391 402.369 101.209 405.599 90.6464C408.828 80.0834 420.009 74.1383 430.572 77.3678ZM128.494 98.4976C130.121 98.8137 131.183 100.388 130.867 102.015C130.708 102.834 130.23 103.509 129.587 103.938C130.206 105.411 130.238 107.126 129.537 108.701C128.189 111.728 124.642 113.09 121.615 111.742C118.588 110.394 117.226 106.847 118.574 103.82C119.722 101.241 122.467 99.8711 125.126 100.356C125.639 99.0273 127.046 98.2161 128.494 98.4976ZM361.768 69.7433C372.787 70.5138 381.095 80.0709 380.324 91.0897C379.553 102.108 369.996 110.416 358.978 109.646C347.959 108.875 339.651 99.3182 340.421 88.2994C341.192 77.2806 350.749 68.9728 361.768 69.7433ZM261.233 79.2068C264.603 86.7749 261.199 95.6415 253.631 99.011C246.063 102.381 237.197 98.977 233.827 91.4089C230.458 83.8408 233.861 74.9742 241.429 71.6047C248.997 68.2352 257.864 71.6388 261.233 79.2068ZM606.026 87.5349C608.32 88.2361 609.888 90.1871 610.212 92.4129C611.318 92.9157 612.051 94.0678 611.961 95.3524C611.846 97.0052 610.412 98.2514 608.759 98.1358C608.492 98.1171 608.235 98.0639 607.993 97.9808C606.501 99.1579 604.474 99.6086 602.518 99.0105C599.349 98.0417 597.565 94.6874 598.534 91.5185C599.503 88.3496 602.857 86.5661 606.026 87.5349ZM212.248 76.5378C216.328 81.7603 215.402 89.3016 210.18 93.3819C204.957 97.4621 197.416 96.5362 193.336 91.3137C189.256 86.0912 190.181 78.5499 195.404 74.4696C200.626 70.3894 208.168 71.3153 212.248 76.5378ZM161.456 84.6018C164.067 86.6419 164.53 90.4126 162.49 93.0238C160.45 95.6351 156.679 96.0981 154.068 94.0579C151.457 92.0178 150.994 88.2471 153.034 85.6359C155.074 83.0247 158.845 82.5617 161.456 84.6018ZM469.561 60.8409C477.483 63.263 481.942 71.6488 479.52 79.5711C477.098 87.4934 468.712 91.9522 460.79 89.5301C452.867 87.108 448.409 78.7222 450.831 70.7999C453.253 62.8776 461.639 58.4188 469.561 60.8409ZM514.21 57.3492C520.548 59.2869 524.115 65.9955 522.177 72.3333C520.24 78.6712 513.531 82.2382 507.193 80.3005C500.856 78.3629 497.289 71.6543 499.226 65.3164C501.164 58.9786 507.872 55.4116 514.21 57.3492ZM333.581 61.8699C335.02 70.0283 329.572 77.8082 321.414 79.2467C313.255 80.6853 305.475 75.2377 304.037 67.0793C302.598 58.9209 308.046 51.141 316.204 49.7025C324.363 48.2639 332.142 53.7115 333.581 61.8699ZM155.801 71.7642C157.82 72.6627 158.727 75.0272 157.829 77.0453C156.93 79.0635 154.566 79.9711 152.548 79.0726C150.529 78.174 149.622 75.8096 150.52 73.7914C151.419 71.7733 153.783 70.8657 155.801 71.7642ZM558.682 64.841C561.851 65.8098 563.634 69.1641 562.665 72.333C561.696 75.5019 558.342 77.2854 555.173 76.3166C552.004 75.3478 550.221 71.9935 551.19 68.8246C552.158 65.6556 555.513 63.8721 558.682 64.841ZM396.039 44.8695C404.304 45.4474 410.534 52.6152 409.957 60.8793C409.379 69.1434 402.211 75.3743 393.947 74.7964C385.683 74.2185 379.452 67.0507 380.03 58.7866C380.608 50.5225 387.775 44.2916 396.039 44.8695ZM574.156 59.9305C576.36 60.0846 578.022 61.996 577.868 64.1997C577.713 66.4035 575.802 68.0651 573.598 67.911C571.395 67.7569 569.733 65.8454 569.887 63.6417C570.041 61.4379 571.953 59.7763 574.156 59.9305ZM288.679 45.7584C291.375 51.8129 288.652 58.9062 282.597 61.6018C276.543 64.2974 269.45 61.5746 266.754 55.5201C264.058 49.4657 266.781 42.3723 272.836 39.6767C278.89 36.9811 285.984 39.704 288.679 45.7584ZM199.61 48.5346C202.221 50.5747 202.684 54.3454 200.644 56.9566C198.603 59.5678 194.833 60.0308 192.222 57.9907C189.61 55.9506 189.147 52.1799 191.187 49.5687C193.228 46.9574 196.998 46.4945 199.61 48.5346ZM438.759 31.4233C445.37 31.8856 450.355 37.6199 449.893 44.2312C449.431 50.8424 443.696 55.8272 437.085 55.3649C430.474 54.9026 425.489 49.1683 425.951 42.557C426.414 35.9457 432.148 30.961 438.759 31.4233ZM235.471 43.372C237.511 45.9832 237.048 49.7539 234.436 51.794C231.825 53.8341 228.055 53.3712 226.014 50.7599C223.974 48.1487 224.437 44.378 227.049 42.3379C229.66 40.2978 233.43 40.7607 235.471 43.372ZM535.012 40.1812C538.318 40.4124 540.81 43.2795 540.579 46.5851C540.348 49.8908 537.481 52.3831 534.175 52.152C530.869 51.9208 528.377 49.0537 528.608 45.7481C528.839 42.4424 531.707 39.9501 535.012 40.1812ZM368.303 36.0548C369.454 42.5815 365.096 48.8054 358.57 49.9563C352.043 51.1071 345.819 46.7491 344.668 40.2224C343.517 33.6956 347.875 27.4717 354.402 26.3209C360.929 25.17 367.153 29.5281 368.303 36.0548ZM483.776 28.7192C487.082 28.9503 489.574 31.8175 489.343 35.1231C489.112 38.4287 486.245 40.9211 482.939 40.6899C479.633 40.4588 477.141 37.5916 477.372 34.286C477.603 30.9804 480.47 28.488 483.776 28.7192ZM235.064 27.471C236.805 28.831 237.114 31.3448 235.754 33.0856C234.393 34.8265 231.88 35.1351 230.139 33.775C228.398 32.415 228.089 29.9012 229.449 28.1603C230.81 26.4195 233.323 26.1109 235.064 27.471ZM497.308 24.4703C497.691 26.6459 496.239 28.7205 494.063 29.1041C491.887 29.4878 489.813 28.0351 489.429 25.8595C489.046 23.6839 490.498 21.6093 492.674 21.2257C494.849 20.8421 496.924 22.2947 497.308 24.4703ZM319.236 19.1958C320.583 22.223 319.222 25.7697 316.195 27.1175C313.167 28.4653 309.621 27.1039 308.273 24.0767C306.925 21.0494 308.287 17.5028 311.314 16.155C314.341 14.8072 317.888 16.1686 319.236 19.1958ZM281.216 17.6062C283.256 20.2175 282.793 23.9881 280.182 26.0283C277.571 28.0684 273.8 27.6054 271.76 24.9942C269.72 22.3829 270.183 18.6123 272.794 16.5721C275.405 14.532 279.176 14.995 281.216 17.6062ZM404.378 17.6734C404.954 20.9368 402.775 24.0488 399.511 24.6242C396.248 25.1996 393.136 23.0206 392.56 19.7572C391.985 16.4939 394.164 13.3819 397.427 12.8065C400.691 12.2311 403.803 14.4101 404.378 17.6734ZM456.865 16.3999C457.441 19.6632 455.262 22.7752 451.998 23.3506C448.735 23.926 445.623 21.747 445.048 18.4837C444.472 15.2203 446.651 12.1083 449.915 11.5329C453.178 10.9575 456.29 13.1365 456.865 16.3999ZM369.855 5.26228C371.203 8.2895 369.842 11.8362 366.815 13.184C363.787 14.5318 360.241 13.1703 358.893 10.1431C357.545 7.11589 358.907 3.56923 361.934 2.22142C364.961 0.873618 368.508 2.23505 369.855 5.26228ZM320.713 5.74554C322.073 7.48637 321.765 10.0001 320.024 11.3602C318.283 12.7203 315.769 12.4117 314.409 10.6708C313.049 8.93001 313.358 6.41623 315.099 5.05615C316.839 3.69606 319.353 4.00472 320.713 5.74554ZM411.049 3.30914C411.947 5.32729 411.04 7.69173 409.022 8.59027C407.003 9.48881 404.639 8.58118 403.74 6.56303C402.842 4.54488 403.75 2.18044 405.768 1.2819C407.786 0.383366 410.15 1.29099 411.049 3.30914Z" fill="url(#paint0_linear_117_575)"/>
</g>
<defs>
<linearGradient id="paint0_linear_117_575" x1="-52" y1="316.294" x2="426.706" y2="795" gradientUnits="userSpaceOnUse">
<stop stop-opacity="0"/>
<stop offset="0.172032" stop-color="#11004D"/>
<stop offset="0.360039" stop-opacity="0"/>
<stop offset="0.487466" stop-color="#0D0138"/>
<stop offset="0.56998" stop-color="#120050"/>
<stop offset="0.715163" stop-opacity="0"/>
<stop offset="0.857213" stop-color="#170066"/>
<stop offset="1" stop-opacity="0"/>
</linearGradient>
<clipPath id="clip0_117_575">
<rect width="743" height="741" fill="white"/>
</clipPath>
</defs>
</svg>
